HIERARCHY
ROOT Hips
{
  OFFSET 50.2416 97.009 17.4682
  CHANNELS 6 Xposition Yposition Zposition Zrotation Xrotation Yrotation
  JOINT spine
  {
    OFFSET 0 7.96568 0.458067
    CHANNELS 3 Zrotation Xrotation Yrotation
    JOINT spine1
    {
      OFFSET 0 10.2431 0
      CHANNELS 3 Zrotation Xrotation Yrotation
      JOINT spine2
      {
        OFFSET 0 9.81475 0
        CHANNELS 3 Zrotation Xrotation Yrotation
        JOINT Neck
        {
          OFFSET 0 25.1986 1.20138
          CHANNELS 3 Zrotation Xrotation Yrotation
          JOINT Head
          {
            OFFSET 0 7.61315 0
            CHANNELS 3 Zrotation Xrotation Yrotation
            End Site
            {
              OFFSET 0 18.4281 -6.07733
            }
          }
        }
        JOINT RightShoulder
        {
          OFFSET -4.1327 10.5992 -0.575451
          CHANNELS 3 Zrotation Xrotation Yrotation
          JOINT RightArm
          {
            OFFSET 0 13.9018 0
            CHANNELS 3 Zrotation Xrotation Yrotation
            JOINT RightArmRoll
            {
              OFFSET 0 7.01788 0
              CHANNELS 3 Zrotation Xrotation Yrotation
              JOINT RightForeArm
              {
                OFFSET 0 20.4406 0
                CHANNELS 3 Zrotation Xrotation Yrotation
                JOINT RightForeArmRoll
                {
                  OFFSET 0 7.87515 0
                  CHANNELS 3 Zrotation Xrotation Yrotation
                  JOINT RightHand
                  {
                    OFFSET 0 15.8037 0
                    CHANNELS 3 Zrotation Xrotation Yrotation
                    End Site
                    {
                      OFFSET 0 0 0
                    }
                  }
                }
              }
            }
          }
        }
        JOINT LeftShoulder
        {
          OFFSET 4.1327 10.5992 -0.575451
          CHANNELS 3 Zrotation Xrotation Yrotation
          JOINT LeftArm
          {
            OFFSET 0 13.9018 0
            CHANNELS 3 Zrotation Xrotation Yrotation
            JOINT LeftArmRoll
            {
              OFFSET 0 7.01789 0
              CHANNELS 3 Zrotation Xrotation Yrotation
              JOINT LeftForeArm
              {
                OFFSET 0 20.4406 0
                CHANNELS 3 Zrotation Xrotation Yrotation
                JOINT LeftForeArmRoll
                {
                  OFFSET 0 7.87516 0
                  CHANNELS 3 Zrotation Xrotation Yrotation
                  JOINT LeftHand
                  {
                    OFFSET 0 15.8037 0
                    CHANNELS 3 Zrotation Xrotation Yrotation
                    End Site
                    {
                      OFFSET 0 0 0
                    }
                  }
                }
              }
            }
          }
        }
      }
    }
  }
  JOINT RightUpLeg
  {
    OFFSET -7.06048 -1.2947 -1.0861
    CHANNELS 3 Zrotation Xrotation Yrotation
    JOINT RightUpLegRoll
    {
      OFFSET 0 18.5308 0
      CHANNELS 3 Zrotation Xrotation Yrotation
      JOINT RightLeg
      {
        OFFSET 0 -22.9476 0
        CHANNELS 3 Zrotation Xrotation Yrotation
        JOINT RightLegRoll
        {
          OFFSET 0 23.0226 0
          CHANNELS 3 Zrotation Xrotation Yrotation
          JOINT RightFoot
          {
            OFFSET 0 19.1625 0
            CHANNELS 3 Zrotation Xrotation Yrotation
            JOINT RightToeBase
            {
              OFFSET 0 16.0188 0
              CHANNELS 3 Zrotation Xrotation Yrotation
              End Site
              {
                OFFSET 0.00678979 7.75782 -0.894206
              }
            }
          }
        }
      }
    }
  }
  JOINT LeftUpLeg
  {
    OFFSET 7.06048 -1.2947 -1.0861
    CHANNELS 3 Zrotation Xrotation Yrotation
    JOINT LeftUpLegRoll
    {
      OFFSET 0 18.5309 0
      CHANNELS 3 Zrotation Xrotation Yrotation
      JOINT LeftLeg
      {
        OFFSET 0 22.9475 0
        CHANNELS 3 Zrotation Xrotation Yrotation
        JOINT LeftLegRoll
        {
          OFFSET 0 23.2355 0
          CHANNELS 3 Zrotation Xrotation Yrotation
          JOINT LeftFoot
          {
            OFFSET 0 18.9496 0
            CHANNELS 3 Zrotation Xrotation Yrotation
            JOINT LeftToeBase
            {
              OFFSET 0 16.0188 0
              CHANNELS 3 Zrotation Xrotation Yrotation
              End Site
              {
                OFFSET -0.0304289 7.75782 -0.894206
              }
            }
          }
        }
      }
    }
  }
}
MOTION
Frames: 13
Frame Time: 0.00208333
50.0612 96.9076 13.6678 -0.226193 -7.12903 -2.99233 0.115038 -0.253115 -0.380844 0.235849 3.51006 -0.776776 0.245199 5.15506 -0.781528 -14.3366 1.92714 -3.94956 12.8209 9.83761 -6.38056 66.6907 -2.71255 -2.38069 110.63 28.2432 -38.9299 -1.66497e-006 3.48111e-006 -3.92608e-006 144.56 87.114 -151.054 -3.07508e-005 7.43397e-006 -3 8.03025 -4.9512 0.697601 -60.4022 -2.49624 1.6988 -111.196 24.2528 36.0431 3.08192e-005 -1.68292e-005 1.8295e-007 -157.287 84.9851 164.616 -5.02941e-007 1.48404e-006 3.00001 -8.03023 -4.95122 -0.697587 173.84 -5.57062 5.20005 -180 7.01492e-015 178.706 178.2 5.87547 179.693 -1.49267e-006 -2.57806e-006 0.0853263 -19.0844 68.2139 19.7294 8.13466 25.2328 -3.48696 -172.808 -6.17665 -3.23879 4.5067e-006 -1.99009e-005 -1.29715 -2.13249 -6.15454 0.023712 5.33689e-007 -4.48146e-006 -0.0916466 19.168 68.3633 -19.8408 -8.13174 25.2329 3.48571 
50.0594 96.9046 13.661 -0.230553 -7.11927 -3.00283 0.115912 -0.252944 -0.379784 0.237355 3.50939 -0.775186 0.246715 5.1544 -0.779965 -14.3656 1.98014 -3.96276 12.8433 9.72813 -6.39189 66.7314 -2.72578 -2.39104 110.4 28.0244 -38.8892 -1.66497e-006 3.48111e-006 -3.92608e-006 147.514 87.0592 -154.117 -3.07508e-005 7.43397e-006 -3 8.03025 -4.9512 0.697601 -60.4102 -2.48171 1.69088 -111.165 24.0883 35.8433 3.08192e-005 -1.68292e-005 1.8295e-007 -157.689 84.9608 165.029 -5.02941e-007 1.48404e-006 3.00001 -8.03023 -4.95122 -0.697587 173.84 -5.56705 5.2011 -180 7.01492e-015 178.706 178.195 5.86514 179.694 -1.49267e-006 -2.57806e-006 0.0853263 -19.0833 68.2127 19.7282 8.13466 25.2328 -3.48696 -172.805 -6.17613 -3.24303 4.5067e-006 -1.99009e-005 -1.29715 -2.13604 -6.14822 0.0235702 5.33689e-007 -4.48146e-006 -0.0916466 19.1662 68.3612 -19.8389 -8.13174 25.2329 3.48571 
50.0596 96.905 13.6652 -0.235064 -7.10947 -3.01333 0.116796 -0.252777 -0.378665 0.238871 3.50868 -0.773511 0.248241 5.15369 -0.778315 -14.395 2.03399 -3.97614 12.8662 9.61717 -6.40343 66.7731 -2.73915 -2.40155 110.171 27.8068 -38.8519 -1.66497e-006 3.48111e-006 -3.92608e-006 150.373 86.9954 -157.086 -3.07508e-005 7.43397e-006 -3 8.03025 -4.9512 0.697601 -60.4179 -2.46728 1.68298 -111.137 23.9238 35.6436 3.08192e-005 -1.68292e-005 1.8295e-007 -158.091 84.9356 165.442 -5.02941e-007 1.48404e-006 3.00001 -8.03023 -4.95122 -0.697587 173.84 -5.5636 5.20222 -180 7.01492e-015 178.706 178.19 5.85432 179.694 -1.49267e-006 -2.57806e-006 0.0853263 -19.0821 68.2112 19.7268 8.13466 25.2328 -3.48696 -172.802 -6.17582 -3.24747 4.5067e-006 -1.99009e-005 -1.29715 -2.13967 -6.14134 0.0234417 5.33689e-007 -4.48146e-006 -0.0916466 19.1642 68.3589 -19.8367 -8.13174 25.2329 3.48571 
50.0624 96.9001 13.6785 -0.23968 -7.09962 -3.02382 0.117687 -0.252614 -0.377505 0.240395 3.50794 -0.771774 0.249776 5.15295 -0.776605 -14.4248 2.08844 -3.98966 12.8895 9.50517 -6.41513 66.8156 -2.75262 -2.41217 109.942 27.5901 -38.8172 -1.66497e-006 3.48111e-006 -3.92608e-006 153.118 86.9231 -159.943 -3.07508e-005 7.43397e-006 -3 8.03025 -4.9512 0.697601 -60.4253 -2.45292 1.67509 -111.111 23.7592 35.4444 3.08192e-005 -1.68292e-005 1.8295e-007 -158.49 84.9097 165.852 -5.02941e-007 1.48404e-006 3.00001 -8.03023 -4.95122 -0.697587 173.841 -5.56023 5.2034 -180 7.01492e-015 178.706 178.185 5.84318 179.694 -1.49267e-006 -2.57806e-006 0.0853263 -19.0807 68.2096 19.7253 8.13466 25.2328 -3.48696 -172.798 -6.17565 -3.25205 4.5067e-006 -1.99009e-005 -1.29715 -2.14334 -6.13407 0.0233225 5.33689e-007 -4.48146e-006 -0.0916466 19.162 68.3564 -19.8343 -8.13174 25.2329 3.48571 
50.0603 96.9016 13.6868 -0.244354 -7.08975 -3.03431 0.118581 -0.252452 -0.376322 0.241923 3.50719 -0.770003 0.251316 5.15219 -0.774861 -14.4547 2.14323 -4.00326 12.913 9.39258 -6.42692 66.8585 -2.76615 -2.42287 109.713 27.374 -38.7843 -1.66497e-006 3.48111e-006 -3.92608e-006 155.735 86.8431 -162.671 -3.07508e-005 7.43397e-006 -3 8.03025 -4.9512 0.697601 -60.4325 -2.4386 1.66722 -111.088 23.5941 35.2457 3.08192e-005 -1.68292e-005 1.8295e-007 -158.886 84.8833 166.258 -5.02941e-007 1.48404e-006 3.00001 -8.03023 -4.95122 -0.697587 173.841 -5.5569 5.20461 -180 7.01492e-015 178.706 178.18 5.83186 179.694 -1.49267e-006 -2.57806e-006 0.0853263 -19.0792 68.2079 19.7238 8.13466 25.2328 -3.48696 -172.794 -6.17556 -3.25671 4.5067e-006 -1.99009e-005 -1.29715 -2.14705 -6.12657 0.0232087 5.33689e-007 -4.48146e-006 -0.0916466 19.1597 68.3537 -19.8318 -8.13174 25.2329 3.48571 
50.0646 96.9078 13.6919 -0.24904 -7.07988 -3.0448 0.119477 -0.252291 -0.375133 0.243452 3.50642 -0.768223 0.252857 5.15143 -0.773108 -14.4847 2.1981 -4.01688 12.9366 9.27984 -6.43875 66.9015 -2.77969 -2.43358 109.485 27.1579 -38.7524 -1.66497e-006 3.48111e-006 -3.92608e-006 158.213 86.7561 -165.261 -3.07508e-005 7.43397e-006 -3 8.03025 -4.9512 0.697601 -60.4397 -2.4243 1.65934 -111.065 23.4282 35.0477 3.08192e-005 -1.68292e-005 1.8295e-007 -159.278 84.8566 166.661 -5.02941e-007 1.48404e-006 3.00001 -8.03023 -4.95122 -0.697587 173.841 -5.55358 5.20583 -180 7.01492e-015 178.706 178.175 5.82046 179.694 -1.49267e-006 -2.57806e-006 0.0853263 -19.0777 68.2062 19.7222 8.13466 25.2328 -3.48696 -172.791 -6.17549 -3.26139 4.5067e-006 -1.99009e-005 -1.29715 -2.15077 -6.11901 0.0230962 5.33689e-007 -4.48146e-006 -0.0916466 19.1573 68.3511 -19.8293 -8.13174 25.2329 3.48571 
50.0725 96.9049 13.6895 -0.253692 -7.07001 -3.05529 0.120371 -0.252129 -0.373956 0.244979 3.50567 -0.766461 0.254395 5.15067 -0.771372 -14.5146 2.2528 -4.03047 12.9599 9.16741 -6.45056 66.9443 -2.7932 -2.44425 109.258 26.9417 -38.7208 -1.66497e-006 3.48111e-006 -3.92608e-006 160.547 86.6632 -167.707 -3.07508e-005 7.43397e-006 -3 8.03025 -4.9512 0.697601 -60.4469 -2.40997 1.65147 -111.044 23.2611 34.8507 3.08192e-005 -1.68292e-005 1.8295e-007 -159.666 84.8298 167.06 -5.02941e-007 1.48404e-006 3.00001 -8.03023 -4.95122 -0.697587 173.841 -5.55024 5.20704 -180 7.01492e-015 178.706 178.17 5.80915 179.694 -1.49267e-006 -2.57806e-006 0.0853263 -19.0763 68.2045 19.7206 8.13466 25.2328 -3.48696 -172.787 -6.17538 -3.26604 4.5067e-006 -1.99009e-005 -1.29715 -2.15447 -6.11157 0.0229811 5.33689e-007 -4.48146e-006 -0.0916466 19.1551 68.3485 -19.8269 -8.13174 25.2329 3.48571 
50.0679 96.901 13.6869 -0.258262 -7.06018 -3.06578 0.121259 -0.251965 -0.372808 0.246501 3.50494 -0.764742 0.255928 5.14994 -0.769679 -14.5441 2.30707 -4.04397 12.9829 9.05573 -6.46229 66.9865 -2.80664 -2.45485 109.03 26.7249 -38.6887 -1.66497e-006 3.48111e-006 -3.92608e-006 162.735 86.5651 -170.007 -3.07508e-005 7.43397e-006 -3 8.03025 -4.9512 0.697601 -60.4544 -2.39559 1.64358 -111.023 23.0925 34.6549 3.08192e-005 -1.68292e-005 1.8295e-007 -160.048 84.803 167.453 -5.02941e-007 1.48404e-006 3.00001 -8.03023 -4.95122 -0.697587 173.841 -5.54684 5.2082 -180 7.01492e-015 178.706 178.165 5.79811 179.694 -1.49267e-006 -2.57806e-006 0.0853263 -19.0749 68.203 19.7192 8.13466 25.2328 -3.48696 -172.784 -6.17517 -3.27058 4.5067e-006 -1.99009e-005 -1.29715 -2.15813 -6.1044 0.0228593 5.33689e-007 -4.48146e-006 -0.0916466 19.1529 68.346 -19.8246 -8.13174 25.2329 3.48571 
50.0704 96.9014 13.6899 -0.262705 -7.05038 -3.07628 0.12214 -0.251797 -0.371707 0.248015 3.50424 -0.763092 0.257451 5.14924 -0.768055 -14.5733 2.36065 -4.05733 13.0054 8.94524 -6.47387 67.0279 -2.81997 -2.46531 108.802 26.5071 -38.6554 -1.66497e-006 3.48111e-006 -3.92608e-006 164.779 86.4629 -172.163 -3.07508e-005 7.43397e-006 -3 8.03025 -4.9512 0.697601 -60.4622 -2.38113 1.63567 -111.003 22.9221 34.4604 3.08192e-005 -1.68292e-005 1.8295e-007 -160.424 84.7765 167.84 -5.02941e-007 1.48404e-006 3.00001 -8.03023 -4.95122 -0.697587 173.842 -5.54335 5.2093 -180 7.01492e-015 178.706 178.16 5.78745 179.695 -1.49267e-006 -2.57806e-006 0.0853263 -19.0737 68.2016 19.7179 8.13466 25.2328 -3.48696 -172.78 -6.1748 -3.27496 4.5067e-006 -1.99009e-005 -1.29715 -2.16173 -6.09769 0.0227268 5.33689e-007 -4.48146e-006 -0.0916466 19.1509 68.3438 -19.8225 -8.13174 25.2329 3.48571 
50.0826 96.9059 13.7009 -0.266975 -7.04065 -3.08678 0.12301 -0.251624 -0.37067 0.249516 3.5036 -0.761537 0.258962 5.1486 -0.766526 -14.6018 2.41329 -4.07048 13.0271 8.83641 -6.48525 67.0682 -2.83314 -2.47559 108.574 26.2879 -38.62 -1.66497e-006 3.48111e-006 -3.92608e-006 166.683 86.3575 -174.177 -3.07508e-005 7.43397e-006 -3 8.03025 -4.9512 0.697601 -60.4703 -2.36655 1.62775 -110.982 22.7495 34.2675 3.08192e-005 -1.68292e-005 1.8295e-007 -160.794 84.7505 168.22 -5.02941e-007 1.48404e-006 3.00001 -8.03023 -4.95122 -0.697587 173.842 -5.53974 5.21031 -180 7.01492e-015 178.706 178.156 5.77732 179.695 -1.49267e-006 -2.57806e-006 0.0853263 -19.0727 68.2004 19.7168 8.13466 25.2328 -3.48696 -172.777 -6.1742 -3.27911 4.5067e-006 -1.99009e-005 -1.29715 -2.16525 -6.0916 0.0225797 5.33689e-007 -4.48146e-006 -0.0916466 19.1493 68.3418 -19.8206 -8.13174 25.2329 3.48571 
50.0804 96.9041 13.7005 -0.271025 -7.031 -3.0973 0.123865 -0.251444 -0.369714 0.251004 3.50302 -0.760104 0.260457 5.14801 -0.765118 -14.6297 2.46474 -4.08337 13.0479 8.72966 -6.49637 67.1069 -2.84612 -2.48564 108.346 26.0671 -38.582 -1.66497e-006 3.48111e-006 -3.92608e-006 168.45 86.2498 -176.054 -3.07508e-005 7.43397e-006 -3 8.03025 -4.9512 0.697601 -60.4791 -2.35182 1.61979 -110.96 22.5745 34.0764 3.08192e-005 -1.68292e-005 1.8295e-007 -161.157 84.7251 168.595 -5.02941e-007 1.48404e-006 3.00001 -8.03023 -4.95122 -0.697587 173.841 -5.53598 5.21121 -180 7.01492e-015 178.706 178.152 5.76785 179.695 -1.49267e-006 -2.57806e-006 0.0853263 -19.072 68.1995 19.716 8.13466 25.2328 -3.48696 -172.774 -6.17331 -3.28298 4.5067e-006 -1.99009e-005 -1.29715 -2.16867 -6.08629 0.0224139 5.33689e-007 -4.48146e-006 -0.0916466 19.1479 68.3403 -19.8192 -8.13174 25.2329 3.48571 
50.0904 96.9019 13.7087 -0.274808 -7.02144 -3.10784 0.124704 -0.251257 -0.368858 0.252473 3.50251 -0.758818 0.261932 5.1475 -0.763856 -14.6566 2.51472 -4.09595 13.0676 8.62546 -6.50716 67.1439 -2.85885 -2.49541 108.117 25.844 -38.5406 -1.66497e-006 3.48111e-006 -3.92608e-006 170.089 86.1407 -177.801 -3.07508e-005 7.43397e-006 -3 8.03025 -4.9512 0.697601 -60.4885 -2.33692 1.61179 -110.938 22.3967 33.8873 3.08192e-005 -1.68292e-005 1.8295e-007 -161.513 84.7005 168.961 -5.02941e-007 1.48404e-006 3.00001 -8.03023 -4.95122 -0.697587 173.841 -5.53202 5.21197 -180 7.01492e-015 178.706 178.148 5.7592 179.695 -1.49267e-006 -2.57806e-006 0.0853263 -19.0715 68.199 19.7155 8.13466 25.2328 -3.48696 -172.772 -6.17207 -3.28651 4.5067e-006 -1.99009e-005 -1.29715 -2.17195 -6.08193 0.0222255 5.33689e-007 -4.48146e-006 -0.0916466 19.147 68.3392 -19.8182 -8.13174 25.2329 3.48571 
50.0917 96.9025 13.7122 -0.278279 -7.012 -3.11839 0.125522 -0.25106 -0.368119 0.253921 3.50209 -0.757705 0.263385 5.14709 -0.762766 -14.6825 2.563 -4.10815 13.0859 8.52424 -6.51756 67.1788 -2.87131 -2.50485 107.889 25.6184 -38.4951 -1.66497e-006 3.48111e-006 -3.92608e-006 171.607 86.0312 -179.424 -3.07508e-005 7.43397e-006 -3 8.03025 -4.9512 0.697601 -60.4987 -2.32182 1.60375 -110.914 22.2157 33.7004 3.08192e-005 -1.68292e-005 1.8295e-007 -161.861 84.6771 169.321 -5.02941e-007 1.48404e-006 3.00001 -8.03023 -4.95122 -0.697587 173.841 -5.52784 5.21257 -180 7.01492e-015 178.706 178.145 5.75151 179.695 -1.49267e-006 -2.57806e-006 0.0853263 -19.0714 68.1989 19.7154 8.13466 25.2328 -3.48696 -172.77 -6.17043 -3.28963 4.5067e-006 -1.99009e-005 -1.29715 -2.17509 -6.0787 0.0220104 5.33689e-007 -4.48146e-006 -0.0916466 19.1465 68.3387 -19.8177 -8.13174 25.2329 3.48571 
